<?xml version="1.0" encoding="UTF-8" standalone="no"?>
<svg
   xmlns:dc="http://purl.org/dc/elements/1.1/"
   xmlns:cc="http://creativecommons.org/ns#"
   xmlns:rdf="http://www.w3.org/1999/02/22-rdf-syntax-ns#"
   xmlns:svg="http://www.w3.org/2000/svg"
   xmlns="http://www.w3.org/2000/svg"
   xmlns:sodipodi="http://sodipodi.sourceforge.net/DTD/sodipodi-0.dtd"
   xmlns:inkscape="http://www.inkscape.org/namespaces/inkscape"
   inkscape:version="1.0alpha2 (4ce689b25c, 2019-06-24)"
   inkscape:export-ydpi="96"
   inkscape:export-xdpi="96"
   inkscape:export-filename="C:\Users\i7851\Desktop\logo.png"
   sodipodi:docname="logo.svg"
   id="svg4"
   version="1.1"
   viewBox="0 0 135.46667 135.4656"
   height="512"
   width="512">
  <metadata
     id="metadata10">
    <rdf:RDF>
      <cc:Work
         rdf:about="">
        <dc:format>image/svg+xml</dc:format>
        <dc:type
           rdf:resource="http://purl.org/dc/dcmitype/StillImage" />
        <dc:title></dc:title>
      </cc:Work>
    </rdf:RDF>
  </metadata>
  <defs
     id="defs8" />
  <sodipodi:namedview
     inkscape:current-layer="svg4"
     inkscape:window-maximized="1"
     inkscape:window-y="-11"
     inkscape:window-x="-11"
     inkscape:cy="222.82486"
     inkscape:cx="19.322034"
     inkscape:zoom="1.475"
     inkscape:pagecheckerboard="true"
     showgrid="false"
     id="namedview6"
     inkscape:window-height="1920"
     inkscape:window-width="3000"
     inkscape:pageshadow="2"
     inkscape:pageopacity="1"
     guidetolerance="10"
     gridtolerance="10"
     objecttolerance="10"
     borderopacity="1"
     inkscape:document-rotation="0"
     bordercolor="#666666"
     pagecolor="#000000" />
  <path
     style="stroke-width:3.28253;fill:#ffffff;fill-opacity:1"
     inkscape:connector-curvature="0"
     id="path2"
     d="m 52.029895,40.461075 c -0.479251,-1.526378 -0.67292,-2.248536 -1.381947,-3.879954 -0.403752,-0.922392 -0.876436,-1.818524 -1.319578,-2.724502 -0.640094,-1.313013 -2.671982,-5.4687 -3.289098,-6.643847 -0.656507,-1.247362 -1.355686,-2.478313 -2.035171,-3.71911 -2.681829,-4.329661 -5.54748,-8.649474 -9.338806,-12.253695 -4.556155,-2.2715128 -0.295427,-0.47925 1.720048,-1.4804225 1.838217,-1.1259086 1.326143,-5.7509978 1.444314,-0.1313017 0.28558,1.6806572 0.535053,3.3678792 0.853458,5.0419702 0.991326,5.166707 2.17632,10.169288 3.305511,15.319581 0.689332,3.131537 1.335992,6.269638 2.035171,9.401175 0.699179,3.134819 1.444314,6.25979 2.156624,9.391326 0.679484,2.96741 1.345838,5.93482 2.018757,8.90223 1.795546,10.47128 1.418055,7.438219 2.652287,18.011258 0.331535,2.845956 0.653224,5.695194 0.935522,8.544432 0.25932,2.586637 0.5449,5.16999 0.692614,7.759908 0.242908,4.195073 0.173974,9.630957 0.164127,13.871987 -0.09191,2.41594 -0.24619,7.76647 -0.51864,10.35638 -0.134584,1.31302 -0.295429,2.62604 -0.597421,3.91607 -0.351231,1.5034 -1.381947,4.46753 -2.4619,5.81008 -0.623681,0.78125 -1.516531,1.34585 -2.274795,2.01548 -1.053693,0.302 -2.06143,0.83704 -3.164362,0.90598 -4.45768,0.27901 -7.375851,-3.10527 -9.936227,-5.84947 -2.343728,-2.51442 -4.060493,-4.67433 -6.236812,-7.31021 -3.814303,-4.75966 -1.329425,-1.58546 -4.815475,-6.55521 -0.663073,-0.95522 -6.394375,-9.509498 -2.593201,-10.510679 4.047362,-1.066823 18.516766,9.525909 30.284647,12.709969 1.592028,0.302 -0.722157,-0.14443 0.919109,-0.24619 1.184994,-0.0722 2.836108,-0.59413 3.870107,-1.07339 1.562486,-0.72544 2.153341,-1.31301 3.479485,-2.34372 0.505509,-0.5646 1.06354,-1.09309 1.516529,-1.69051 1.624854,-2.15663 2.767176,-4.65134 3.574679,-7.155923 0.630247,-1.969514 0.735287,-2.868931 1.106214,-4.858146 0.426729,-2.865651 0.689331,-5.79367 0.196952,-8.665887 -0.252755,-1.486988 -0.456272,-1.864478 -0.9585,-3.236577 -1.493552,-2.543963 -0.971629,-1.985932 -1.431184,-1.401642 -0.128019,0.2068 -0.229778,0.426729 -0.341384,0.633529 -0.118171,0.288862 -0.25932,0.571161 -0.354513,0.866588 a 16.347014,16.347014 0 0 0 -0.679484,3.23986 27.39602,27.39602 0 0 0 -0.183822,6.158032 c 0.07222,1.168582 0.239624,2.330599 0.361078,3.492616 0.357796,2.685108 0.581008,4.868 1.214537,7.53012 0.584291,2.47504 1.352404,4.80235 2.406097,7.1428 1.027433,2.28793 1.391794,2.67527 2.704807,4.65135 1.066823,1.03072 0.951935,1.38851 1.752873,0.29542 0.387338,-0.62368 0.84361,-1.2211 1.168581,-1.88088 0.475968,-0.97164 0.863306,-1.98594 1.224385,-3.00024 0.945369,-2.65228 1.437749,-4.62837 1.99578,-7.37913 0.249473,-1.23751 0.426729,-2.488163 0.649942,-3.728962 0.24619,-1.372093 0.502227,-2.740912 0.754982,-4.109729 0.853458,-5.048536 0.827198,-4.365769 1.329426,-9.453694 0.144431,-1.480423 0.236342,-2.96741 0.370926,-4.451115 0.134584,-1.470575 0.315123,-2.94115 0.436577,-4.415006 0.275733,-3.272686 0.288863,-4.460962 0.416882,-7.648302 6.131771,-22.40657 4.083471,10.592733 5.603283,19.760847 0.4136,2.478313 0.965065,4.933648 1.444315,7.402112 1.221102,4.996009 1.78898,7.746769 3.364596,12.578669 0.541618,1.66425 1.162017,3.30879 1.805393,4.94349 a 58.95429,58.95429 0 0 0 3.423682,7.30364 c 0.489097,0.86987 1.05041,1.70363 1.578898,2.55381 1.093083,1.45088 1.299884,1.98265 2.626026,3.1184 0.571162,0.59414 0.961783,0.36765 1.838218,-1.56576 0.853456,-1.92028 1.296596,-3.61079 1.706926,-5.67222 0.29214,-1.45088 0.57116,-2.90833 0.732,-4.37562 0.18711,-1.70691 0.21008,-3.42039 0.31512,-5.12732 -0.0656,-4.4708 0.007,-6.94256 -0.54162,-11.46916 A 85.976101,85.976101 0 0 0 96.038813,76.138924 c -1.030715,-2.54068 -2.301056,-4.989449 -3.449942,-7.484175 -1.332709,-2.278077 -2.566941,-4.605393 -3.998125,-6.827667 a 83.277859,83.277859 0 0 0 -4.053929,-5.672218 63.457926,63.457926 0 0 0 -7.320048,-8.0619 c -8.547716,-8.885817 -6.663541,-7.057446 -2.941149,2.03517 3.873388,8.682299 8.127551,18.126146 12.309498,25.442912 1.486987,2.583353 2.99367,5.156859 4.625089,7.664714 3.230012,4.966473 6.548653,9.194375 10.126613,13.934356 6.38125,7.723794 3.16765,3.863544 9.63752,11.584054 1.12262,1.32287 -0.91911,2.78031 -2.04174,1.45416 -6.64713,-7.76975 -3.5517,-3.76835 -9.302699,-11.994375 -1.605156,-2.29777 -3.223445,-4.582413 -4.815473,-6.886751 -1.674092,-2.432357 -3.29238,-4.900821 -4.98945,-7.320048 C 78.752994,72.53142 58.992147,30.50187 72.013955,37.099761 c 1.460726,1.007738 2.143494,1.720048 3.489332,2.94115 0.784525,0.797656 1.598593,1.56905 2.347011,2.389683 a 96.785481,96.785481 0 0 1 5.908559,7.277376 c 4.116296,5.787105 7.349591,12.046895 10.694492,18.218057 1.175147,2.537398 2.422509,5.041971 3.518876,7.605629 a 130.18525,130.18525 0 0 1 5.465415,15.263778 c 1.2408,4.375617 2.16975,8.72826 2.62931,13.228606 0.19039,1.8612 0.17726,3.73225 0.26588,5.6 0.0328,1.85792 0.18711,8.23916 0.0591,10.24151 0,1.26048 -0.24947,3.01993 -0.47597,4.26729 -1.92028,7.91091 -8.754513,10.80609 -13.139976,5.69191 -1.562488,-1.90387 -1.588748,-2.25182 -2.734353,-4.45112 -0.443141,-1.00774 -0.928957,-2.00234 -1.332708,-3.02649 -1.716764,-4.34279 -2.777022,-8.74794 -3.791325,-13.26143 -0.459555,-2.04502 -0.93224,-4.08348 -1.326144,-6.13506 -0.433294,-2.25838 -0.771395,-4.529894 -1.155451,-6.79484 -0.39387,-2.494725 -0.787774,-4.996015 -1.171831,-7.494022 -1.109496,-7.553108 -2.504573,-15.460731 -3.49918,-22.465655 -0.213364,-4.625089 -3.397421,-13.727553 1.240797,-15.250648 6.125207,-0.896132 5.76741,3.709262 5.327551,7.615475 -0.167409,1.473858 -0.397186,2.94115 -0.571161,4.415008 -0.114888,0.9585 -0.206799,1.920281 -0.321688,2.878781 -0.131301,1.053693 -0.275732,2.107386 -0.413598,3.164361 -0.804221,5.593436 -1.408207,11.318174 -2.067997,16.543966 -0.584291,4.726847 -0.554748,4.881126 -0.968347,9.634235 -0.167409,1.427907 -0.28558,2.865653 -0.508792,4.290268 -0.200235,1.293321 -0.495663,2.573511 -0.761548,3.856981 -0.275733,1.32942 -0.564596,2.65885 -0.860023,3.98828 -0.295429,1.32286 -0.571162,2.65228 -0.912545,3.9653 -1.063541,4.00468 -2.668699,9.54889 -6.614303,10.38593 -1.050411,0.20023 -2.173037,0.18053 -3.2136,-0.0526 -0.7517,-0.16741 -1.395076,-0.64667 -1.98265,-1.10622 -1.572334,-1.22439 -1.821806,-2.05815 -2.73435,-3.68629 -0.377491,-0.84032 -0.781243,-1.67081 -1.125909,-2.52099 -1.066823,-2.63258 -1.454161,-3.99811 -2.28136,-6.76857 -0.407034,-1.36225 -0.830481,-2.71794 -1.188277,-4.09004 -0.935522,-3.591089 -0.98476,-4.336223 -1.595311,-7.914189 -0.131301,-1.214536 -0.262603,-2.429073 -0.403752,-3.64361 -0.137865,-1.224385 -0.301992,-2.445487 -0.430011,-3.669872 -0.118171,-1.099648 -0.272451,-2.199297 -0.308559,-3.305511 a 22.452524,22.452524 0 0 1 0.42673,-4.598829 c 0.137867,-0.613834 0.380774,-1.204689 0.571161,-1.808676 0.55803,-1.03728 0.886284,-1.811957 1.716764,-2.708089 1.335992,-1.444315 2.740916,-2.22884 4.841736,-2.350293 0.528488,-0.03283 1.050411,0.105045 1.575616,0.157561 0.567878,0.196952 1.162016,0.334819 1.69707,0.597421 0.436577,0.210082 0.820633,0.502228 1.188276,0.804221 1.821806,1.51653 2.560376,3.426964 3.180775,5.54748 0.390621,1.664245 0.653224,2.586636 0.846893,4.323096 0.08863,0.814068 0.124736,1.631419 0.150996,2.445487 0.02626,0.869872 0.04923,1.739743 0.01313,2.612896 -0.08863,1.949825 -0.351231,3.18734 -0.669637,5.120752 -0.223212,0.879718 -0.420163,1.766007 -0.666353,2.639159 -0.485815,1.716766 -1.296601,4.224616 -2.025324,5.846186 a 31.794614,31.794614 0 0 1 -1.470574,2.81313 c -1.739743,3.01994 -1.805394,2.86894 -4.060493,5.64268 -1.936695,1.37866 -2.94115,2.24525 -5.219227,3.19718 -1.825089,0.76483 -4.523331,1.39836 -6.515828,1.43775 -10.307154,-1.23422 -19.051822,-7.15592 -25.190158,-10.83235 -6.995077,-9.594845 1.894022,2.52099 5.619696,7.35287 0.978195,1.15874 1.90387,2.35686 2.937867,3.46964 2.094256,2.24853 3.45979,3.49589 6.007035,5.1667 0.912545,0.59742 1.966238,0.93881 2.90176,1.48371 0.328253,-0.0821 0.715592,-0.046 0.978195,-0.24291 1.03728,-0.78452 2.235404,-2.84595 2.652286,-3.85041 0.469402,-1.13248 0.784525,-2.31419 1.089801,-3.48933 1.043845,-3.99484 1.168582,-5.72146 1.795545,-9.94607 0.183822,-2.1435 0.436577,-4.28371 0.548183,-6.433767 0.124736,-2.402812 0.154279,-4.812197 0.157562,-7.221576 0.01313,-5.44244 -0.164126,-10.832359 -0.692614,-16.258385 C 48.783469,68.966545 47.952988,64.738643 46.807385,57.927387 46.249354,54.946848 45.763539,51.953178 45.139858,48.985768 44.483352,45.85095 43.787454,42.719413 42.970103,39.617419 A 177.07952,177.07952 0 0 0 40.242318,30.40996 143.26943,143.26943 0 0 0 34.662013,15.769862 C 33.956268,14.200812 33.132352,12.677717 32.36424,11.12836 31.090617,8.9914316 28.858495,6.8545028 31.773384,4.2678673 c 0.935522,-0.8337636 2.560376,-0.5908562 3.866824,-0.538336 0.485814,0.016419 0.853458,0.4431425 1.227667,0.7287232 0.551466,0.4168813 1.299883,1.3917934 1.706917,1.8874561 1.372099,1.8119585 2.701525,3.6600244 3.929191,5.5606104 0.584291,0.909262 1.135757,1.838219 1.700353,2.757328 2.494725,4.05721 1.555921,2.50129 4.027668,6.768582 2.058148,3.361314 2.353576,3.830717 4.342791,7.123097 0.06565,0.105045 3.151231,5.238923 3.374443,5.570458 1.014303,1.51653 1.500118,2.025323 2.583354,3.282534 2.353576,4.214772 -4.145839,7.27081 -6.499415,3.052755 z" />
</svg>
