<svg xmlns="http://www.w3.org/2000/svg" width="550" height="150" viewBox="0 0 145.521 39.688"><g aria-label="LCTOAN" style="line-height:1.25" font-weight="400" font-size="32.751" font-family="Arial" letter-spacing="0" word-spacing="0" stroke="#000" stroke-width="4.642"><path d="M6.11 33.104V9.66h3.103v20.677h9.809l-1.07 2.767zM41.196 24.884l3.103.783q-.976 3.822-3.518 5.837-2.527 2-6.19 2-3.79 0-6.172-1.536-2.367-1.551-3.614-4.477-1.231-2.927-1.231-6.285 0-3.662 1.39-6.38 1.408-2.735 3.983-4.143 2.59-1.423 5.693-1.423 3.518 0 5.917 1.791 2.398 1.791 3.342 5.038l-3.054.72q-.816-2.56-2.367-3.727-1.551-1.167-3.902-1.167-2.703 0-4.526 1.295-1.807 1.295-2.542 3.486-.736 2.175-.736 4.494 0 2.99.863 5.23.88 2.222 2.719 3.325 1.84 1.104 3.982 1.104 2.607 0 4.414-1.503 1.807-1.504 2.446-4.462zM54.102 33.104V12.426h-7.724V9.66H64.96v2.766h-7.756v20.678zM66.639 21.686q0-5.837 3.134-9.132 3.135-3.31 8.092-3.31 3.246 0 5.853 1.551 2.607 1.551 3.966 4.334 1.375 2.767 1.375 6.285 0 3.566-1.44 6.38-1.438 2.815-4.077 4.27-2.639 1.44-5.693 1.44-3.31 0-5.917-1.6-2.606-1.599-3.95-4.366-1.343-2.766-1.343-5.852zm3.198.048q0 4.237 2.271 6.684 2.287 2.43 5.725 2.43 3.502 0 5.757-2.462 2.27-2.463 2.27-6.988 0-2.863-.975-4.99-.96-2.143-2.83-3.31-1.855-1.183-4.174-1.183-3.294 0-5.677 2.27-2.367 2.255-2.367 7.549zM90.466 33.104L99.47 9.66h3.342l9.595 23.444h-3.534l-1.532-3.493H95.266l-1.505 3.493zm5.429-6.286h10.62l-3.783-9.834c-.746-1.972-1.3-3.593-1.663-4.861a29.886 29.886 0 0 1-1.263 4.477zM114.886 33.104V9.66h3.182l12.313 18.005V9.66h2.975v23.444h-3.182L117.86 15.149v17.955z"/></g><g aria-label="LCTOAN" fill="#f40000" stroke="#000" stroke-width="4.642"><path d="M7.709 31.395V7.952h3.102v20.677h9.81l-1.07 2.766z" fill="#fc0000" stroke="#7cddc2"/>
<path fill="#000" stroke-width="1.5" d="M137.8 30.617h4.01v4.01h-4.01z">
  <animate id="dot-blink" attributeType="CSS" attributeName="opacity" from="1" to="0" dur=".1s" begin="1s;dot-blink.end+1s"/>
</path></g></svg>