<svg xmlns="http://www.w3.org/2000/svg" width="120" height="160" viewBox="0 0 31.75 42.333"><path d="M11.986 12.716c-.146-.465-.205-.685-.421-1.182-.123-.281-.267-.554-.402-.83-.195-.4-.814-1.666-1.002-2.024-.2-.38-.413-.755-.62-1.133-.817-1.319-1.69-2.635-2.845-3.733-1.388-.692-.09-.146.524-.451.56-.343.404-1.752.44-.04.087.512.163 1.026.26 1.536.302 1.574.663 3.098 1.007 4.667.21.954.407 1.91.62 2.864.213.955.44 1.907.657 2.861.207.904.41 1.808.615 2.712.547 3.19.432 2.266.808 5.487.101.867.199 1.735.285 2.603.079.788.166 1.575.211 2.364.074 1.278.053 2.934.05 4.226-.028.736-.075 2.366-.158 3.155-.041.4-.09.8-.182 1.193-.107.458-.421 1.361-.75 1.77-.19.238-.462.41-.693.614-.321.092-.628.255-.964.276-1.358.085-2.247-.946-3.027-1.782-.714-.766-1.237-1.424-1.9-2.227-1.162-1.45-.405-.483-1.467-1.997-.202-.291-1.948-2.897-.79-3.202 1.233-.325 5.641 2.902 9.226 3.872.485.092-.22-.044.28-.075.361-.022.864-.181 1.179-.327.476-.221.656-.4 1.06-.714.154-.172.324-.333.462-.515.495-.657.843-1.417 1.089-2.18.192-.6.224-.874.337-1.48.13-.873.21-1.765.06-2.64-.077-.453-.139-.568-.292-.986-.455-.775-.296-.605-.436-.427-.039.063-.07.13-.104.193-.036.088-.079.174-.108.264a4.98 4.98 0 0 0-.207.987 8.346 8.346 0 0 0-.056 1.876c.022.356.073.71.11 1.064.109.818.177 1.483.37 2.294.178.754.412 1.463.733 2.176.313.697.424.815.824 1.417.325.314.29.423.534.09.118-.19.257-.372.356-.573.145-.296.263-.605.373-.914.288-.808.438-1.41.608-2.248.076-.377.13-.758.198-1.136.075-.418.153-.835.23-1.252.26-1.538.252-1.33.405-2.88.044-.451.072-.904.113-1.356.041-.448.096-.896.133-1.345.084-.997.088-1.359.127-2.33 1.868-6.826 1.244 3.227 1.707 6.02.126.755.294 1.503.44 2.255.372 1.522.545 2.36 1.025 3.832.165.507.354 1.008.55 1.506a17.96 17.96 0 0 0 1.043 2.225c.149.265.32.519.481.778.333.442.396.604.8.95.174.181.293.112.56-.477.26-.585.395-1.1.52-1.728.089-.442.174-.886.223-1.333.057-.52.064-1.042.096-1.562-.02-1.362.002-2.115-.165-3.494a26.192 26.192 0 0 0-1.733-6.685c-.314-.774-.701-1.52-1.051-2.28-.406-.694-.782-1.403-1.218-2.08a25.37 25.37 0 0 0-1.235-1.728 19.332 19.332 0 0 0-2.23-2.456c-2.604-2.707-2.03-2.15-.896.62 1.18 2.645 2.476 5.522 3.75 7.751.453.787.912 1.571 1.409 2.335.984 1.513 1.995 2.801 3.085 4.245 1.944 2.353.965 1.177 2.936 3.529.342.403-.28.847-.622.443-2.025-2.367-1.082-1.148-2.834-3.654-.489-.7-.982-1.396-1.467-2.098-.51-.741-1.003-1.493-1.52-2.23-3.373-3.496-9.393-16.3-5.426-14.29.445.307.653.524 1.063.896.239.243.487.478.715.728a29.485 29.485 0 0 1 1.8 2.217c1.254 1.763 2.239 3.67 3.258 5.55.358.773.738 1.536 1.072 2.317a39.66 39.66 0 0 1 1.665 4.65c.378 1.333.661 2.659.801 4.03.058.567.054 1.137.081 1.706.01.566.057 2.51.018 3.12 0 .384-.076.92-.145 1.3-.585 2.41-2.667 3.292-4.003 1.734-.476-.58-.484-.686-.833-1.356-.135-.307-.283-.61-.406-.922-.523-1.323-.846-2.665-1.155-4.04-.14-.623-.284-1.244-.404-1.869-.132-.688-.235-1.38-.352-2.07-.12-.76-.24-1.522-.357-2.283-.338-2.301-.763-4.71-1.066-6.844-.065-1.409-1.035-4.182.378-4.646 1.866-.273 1.757 1.13 1.623 2.32-.051.449-.121.896-.174 1.345-.035.292-.063.585-.098.877-.04.321-.084.642-.126.964-.245 1.704-.429 3.448-.63 5.04-.178 1.44-.169 1.487-.295 2.935-.051.435-.087.873-.155 1.307-.061.394-.151.784-.232 1.175-.084.405-.172.81-.262 1.215-.09.403-.174.808-.278 1.208-.324 1.22-.813 2.909-2.015 3.164-.32.061-.662.055-.979-.016-.229-.051-.425-.197-.604-.337-.479-.373-.555-.627-.833-1.123-.115-.256-.238-.509-.343-.768-.325-.802-.443-1.218-.695-2.062-.124-.415-.253-.828-.362-1.246-.285-1.094-.3-1.321-.486-2.411-.04-.37-.08-.74-.123-1.11-.042-.373-.092-.745-.131-1.118-.036-.335-.083-.67-.094-1.007a6.84 6.84 0 0 1 .13-1.401c.042-.187.116-.367.174-.551.17-.316.27-.552.523-.825.407-.44.835-.679 1.475-.716.161-.01.32.032.48.048.173.06.354.102.517.182.133.064.25.153.362.245.555.462.78 1.044.969 1.69.119.507.199.788.258 1.317.027.248.038.497.046.745.008.265.015.53.004.796-.027.594-.107.971-.204 1.56-.068.268-.128.538-.203.804-.148.523-.395 1.287-.617 1.781a9.686 9.686 0 0 1-.448.857c-.53.92-.55.874-1.237 1.719-.59.42-.896.684-1.59.974-.556.233-1.378.426-1.985.438-3.14-.376-5.804-2.18-7.674-3.3-2.131-2.923.577.768 1.712 2.24.298.353.58.718.895 1.057.638.685 1.054 1.065 1.83 1.574.278.182.599.286.884.452.1-.025.218-.014.298-.074.316-.239.681-.867.808-1.173.143-.345.239-.705.332-1.063.318-1.217.356-1.743.547-3.03.056-.653.133-1.305.167-1.96.038-.732.047-1.466.048-2.2.004-1.658-.05-3.3-.211-4.953-.205-2.095-.458-3.383-.807-5.458-.17-.908-.318-1.82-.508-2.724-.2-.955-.412-1.909-.661-2.854a53.946 53.946 0 0 0-.831-2.805 43.646 43.646 0 0 0-1.7-4.46c-.215-.478-.466-.942-.7-1.414-.388-.651-1.068-1.302-.18-2.09.285-.254.78-.18 1.178-.164.148.005.26.135.374.222.168.127.396.424.52.575.418.552.823 1.115 1.197 1.694.178.277.346.56.518.84.76 1.236.474.762 1.227 2.062.627 1.024.717 1.167 1.323 2.17.02.032.96 1.596 1.028 1.697.309.462.457.617.787 1 .717 1.284-1.263 2.215-1.98.93z"/></svg>